<svg width="160" height="160" viewBox="0 0 160 160" fill="none" xmlns="http://www.w3.org/2000/svg">
<path d="M79.0232 140.283C112.172 140.283 139.046 113.409 139.046 80.1416C139.046 46.8743 112.172 20 79.0232 20C45.8743 20 19 46.8743 19 80.1416C19 113.409 45.8743 140.283 79.0232 140.283Z" fill="#F5F6FA"/>
<path d="M34.864 48.2949H120.222C123.656 48.2949 126.26 50.8995 126.26 54.3328V108.437C126.26 111.87 123.656 114.474 120.222 114.474H34.864C31.4307 114.474 28.8262 111.87 28.8262 108.437V54.3328C28.8262 50.8995 31.6675 48.2949 34.864 48.2949Z" fill="url(#paint0_linear_6006_1045)"/>
<g filter="url(#filter0_d_6006_1045)">
<path d="M109.897 54.3281L110.622 112.739C110.622 114.734 108.99 116.276 106.994 116.276H50.0347C48.0393 116.276 46.4067 114.644 46.4067 112.739V37.6394C46.4067 35.644 48.0393 34.1021 50.0347 34.1021H91.3032L109.897 54.3281Z" fill="url(#paint1_linear_6006_1045)"/>
</g>
<path d="M83.3216 46.3465H56.0209C55.386 46.3465 54.8418 45.8023 54.8418 45.1674C54.8418 44.5325 55.386 43.9883 56.0209 43.9883H83.3216C83.9565 43.9883 84.5007 44.5325 84.5007 45.1674C84.5007 45.8023 83.9565 46.3465 83.3216 46.3465Z" fill="#D5DAE5"/>
<path d="M66.5421 52.8772H56.0209C55.386 52.8772 54.8418 52.333 54.8418 51.6981C54.8418 51.0632 55.386 50.519 56.0209 50.519H66.4514C67.0863 50.519 67.6305 51.0632 67.6305 51.6981C67.6305 52.333 67.0863 52.8772 66.5421 52.8772Z" fill="#D5DAE5"/>
<path d="M91.3032 34.1021V50.2466C91.3032 52.5141 93.2986 54.3281 95.5661 54.3281H109.897" fill="#D5DAE5"/>
<path d="M102.297 66.6694H92.3994H89.9461H56.3618C55.9388 66.6694 55.5159 67.0933 55.5159 67.6867C55.5159 68.1954 55.8542 68.704 56.3618 68.704H89.9461H92.3994H102.212C102.805 68.704 103.143 68.2802 103.143 67.6867C103.143 67.1781 102.805 66.6694 102.297 66.6694Z" fill="#D5DAE5"/>
<path d="M120.459 68.0659H92.7563C90.0334 68.0659 87.4288 69.013 85.4162 70.6705L78.1945 76.5899C76.1818 78.2474 73.5773 79.1945 70.8543 79.1945H39.5996C36.4031 79.1945 33.7986 81.799 33.7986 84.9955C33.7986 85.2323 33.7986 85.5875 33.917 85.8243L39.718 116.369C40.1916 119.21 42.5594 121.341 45.5191 121.341H112.409C115.25 121.341 117.736 119.328 118.21 116.487L126.26 74.6957C126.852 71.4992 124.721 68.6579 121.525 68.0659C121.051 68.0659 120.696 68.0659 120.459 68.0659Z" fill="white"/>
<g filter="url(#filter1_dd_6006_1045)">
<path d="M132.89 59.8972H96.8999C93.3482 59.8972 90.0333 61.0811 87.3104 63.3305L77.8392 71.0258C75.2347 73.1568 71.8014 74.459 68.2497 74.459H27.5239C23.3803 74.459 20.0654 77.8923 20.0654 81.9175C20.0654 82.2727 20.0654 82.6279 20.1838 82.983L27.6423 122.88C28.2343 126.669 31.4308 129.392 35.1008 129.392H122.235C126.024 129.392 129.102 126.787 129.694 122.999L140.23 68.4212C140.941 64.2776 138.218 60.6075 134.074 59.7788C133.719 59.8972 133.245 59.8972 132.89 59.8972Z" fill="url(#paint2_linear_6006_1045)"/>
</g>
<path d="M131.69 137.199L114.297 119.84C95.9376 133.342 70.7656 120.178 70.7656 98.1413C70.7656 83.145 82.9892 70.9937 97.9668 70.9937C119.612 70.9937 132.898 95.2964 120.288 113.668L137.778 131.124C139.469 132.811 139.469 135.512 137.778 137.199C136.087 138.887 133.381 138.887 131.69 137.199ZM97.9668 79.625C87.7241 79.625 79.3656 87.967 79.3656 98.1896C79.3656 114.632 99.078 122.54 110.384 111.98C123.187 100.022 114.635 79.625 97.9668 79.625Z" fill="#989FB0"/>
<path d="M96.0824 102.24C96.0341 101.855 95.9858 101.469 95.9858 101.035C95.9858 99.4436 96.6622 97.997 98.3532 96.7433L99.8027 95.6825C100.721 95.0074 101.107 94.2359 101.107 93.3197C101.107 91.9695 100.141 90.6676 98.1117 90.6676C95.9858 90.6676 95.0678 92.3553 95.0678 94.043C95.0678 94.3805 95.1161 94.7181 95.1645 95.0074L91.3959 94.8627C91.2993 94.4288 91.251 93.9466 91.251 93.5126C91.251 90.2819 93.6667 87.1958 98.0633 87.1958C102.702 87.1958 105.117 90.089 105.117 93.1268C105.117 95.4896 103.909 97.1291 102.17 98.3828L100.962 99.2507C99.8993 99.974 99.3679 100.938 99.3679 102.144V102.337H96.0824V102.24ZM97.7735 104.169C99.078 104.169 100.141 105.23 100.141 106.532C100.141 107.834 99.078 108.895 97.7735 108.895C96.469 108.895 95.406 107.834 95.406 106.532C95.406 105.23 96.469 104.169 97.7735 104.169Z" fill="#989FB0"/>
<defs>
<filter id="filter0_d_6006_1045" x="24.4067" y="23.1021" width="108.216" height="126.174" filterUnits="userSpaceOnUse" color-interpolation-filters="sRGB">
<feFlood flood-opacity="0" result="BackgroundImageFix"/>
<feColorMatrix in="SourceAlpha" type="matrix" values="0 0 0 0 0 0 0 0 0 0 0 0 0 0 0 0 0 0 127 0" result="hardAlpha"/>
<feOffset dy="11"/>
<feGaussianBlur stdDeviation="11"/>
<feColorMatrix type="matrix" values="0 0 0 0 0.397708 0 0 0 0 0.47749 0 0 0 0 0.575 0 0 0 0.27 0"/>
<feBlend mode="normal" in2="BackgroundImageFix" result="effect1_dropShadow_6006_1045"/>
<feBlend mode="normal" in="SourceGraphic" in2="effect1_dropShadow_6006_1045" result="shape"/>
</filter>
<filter id="filter1_dd_6006_1045" x="11.0654" y="54.7788" width="138.277" height="87.6128" filterUnits="userSpaceOnUse" color-interpolation-filters="sRGB">
<feFlood flood-opacity="0" result="BackgroundImageFix"/>
<feColorMatrix in="SourceAlpha" type="matrix" values="0 0 0 0 0 0 0 0 0 0 0 0 0 0 0 0 0 0 127 0" result="hardAlpha"/>
<feOffset dy="4"/>
<feGaussianBlur stdDeviation="4.5"/>
<feColorMatrix type="matrix" values="0 0 0 0 0.397708 0 0 0 0 0.47749 0 0 0 0 0.575 0 0 0 0.15 0"/>
<feBlend mode="normal" in2="BackgroundImageFix" result="effect1_dropShadow_6006_1045"/>
<feColorMatrix in="SourceAlpha" type="matrix" values="0 0 0 0 0 0 0 0 0 0 0 0 0 0 0 0 0 0 127 0" result="hardAlpha"/>
<feOffset dy="1"/>
<feGaussianBlur stdDeviation="0.5"/>
<feComposite in2="hardAlpha" operator="out"/>
<feColorMatrix type="matrix" values="0 0 0 0 0 0 0 0 0 0 0 0 0 0 0 0 0 0 0.03 0"/>
<feBlend mode="normal" in2="effect1_dropShadow_6006_1045" result="effect2_dropShadow_6006_1045"/>
<feBlend mode="normal" in="SourceGraphic" in2="effect2_dropShadow_6006_1045" result="shape"/>
</filter>
<linearGradient id="paint0_linear_6006_1045" x1="77.5509" y1="50.5939" x2="77.5509" y2="87.7398" gradientUnits="userSpaceOnUse">
<stop stop-color="#B0BACC"/>
<stop offset="1" stop-color="#969EAE"/>
</linearGradient>
<linearGradient id="paint1_linear_6006_1045" x1="78.4936" y1="32.2013" x2="78.4936" y2="117.162" gradientUnits="userSpaceOnUse">
<stop stop-color="#FDFEFF"/>
<stop offset="0.9964" stop-color="#ECF0F5"/>
</linearGradient>
<linearGradient id="paint2_linear_6006_1045" x1="80.1649" y1="58.1686" x2="80.1649" y2="130.142" gradientUnits="userSpaceOnUse">
<stop stop-color="#FDFEFF"/>
<stop offset="0.9964" stop-color="#ECF0F5"/>
</linearGradient>
</defs>
</svg>
